<svg xmlns="http://www.w3.org/2000/svg" viewBox="0 0 117.55 75.59"><defs><style>.cls-1,.cls-3{fill:#4a8497;}.cls-1{opacity:0.5;}.cls-2{fill:#363636;}.cls-3{font-size:9px;font-family:OpenSans, Open Sans;letter-spacing:0.02em;}</style></defs><g id="Layer_2" data-name="Layer 2"><g id="Layer_1-2" data-name="Layer 1"><path class="cls-1" d="M49,65a3.57,3.57,0,0,1-.62,2.31c-2.15,3.38-5.23,7.46-9.53,8.22a6.78,6.78,0,0,1-4.62-.84c-.31-.23-4.38-3.23-4.38-3.54a.55.55,0,0,1,.3.08.64.64,0,0,0-.38-.23c.23.23-.77-.39-.92-.46A6.78,6.78,0,0,1,27.36,69a29.08,29.08,0,0,0-2.62-2.69c-.38-.31-4-4.54-3.46-5.08.08-.08.31.38.46.23l-1-1.23v.15c-.15.23-4.69-7-5.15-7.69a16,16,0,0,1-2.23-4.07.4.4,0,0,1,.23-.54,1.09,1.09,0,0,0-.61-.69l-1.39-2.69c-.69,2.23-.77,4.46-1.54,6.69-1,3.3-1.77,6.53-2.53,9.76l-.93,4c-.23,1-.15,2.62-.69,3.54-1.08,2-3.54-.92-4.31-2.08-2.3-3.07-.84-6.69,0-10A86.79,86.79,0,0,1,4.13,48a50.75,50.75,0,0,0,1.69-6.77c1.7-5.84,3.85-11.61,5.69-17.45C13.28,18.57,15,13.35,17.13,8.19A21.36,21.36,0,0,1,18.44,5L19,3.73a.6.6,0,0,1-.15-.31c1-1.76,3.92-.92,5.23.08,2.69,1.85.38,3.54-.54,5.69a16.38,16.38,0,0,0-.38,2.23c-.46,1.62-1.31,3.23-1.85,4.77-.84,2.15-1.61,4.31-2.38,6.54l-1.39,3.46a11.78,11.78,0,0,0-.92,3.61c-.46,2.39-1.85,4.62-2.46,7a98.67,98.67,0,0,0,10.53-9.23C28,24,31.59,20.88,34.74,17c2.92-3.69,6.77-8,8.07-12.54C43,3.73,42.81,2.81,44,3,45.58,3.42,46.89,6.5,47.2,8v.16c.54,3.3-1.16,5.76-3.31,8.3C42.35,18.19,41,20,39.28,21.73a19.33,19.33,0,0,0-1.85,2.61,20.2,20.2,0,0,1-2.61,2.54c-1.77,1.54-3.39,3.31-5.16,4.85-1.23,1-2.07,2.23-3.23,3.3A50.24,50.24,0,0,1,15.05,42.8a70.59,70.59,0,0,0,5.46,8c-.61-.93-1.84-2.62-2.61-3.92,2.46,3.23,8,9.84,8.61,10.61,2,1.84,4,3.61,5.92,5.54a35.26,35.26,0,0,0,4.31,4l-.39-.46a24.46,24.46,0,0,1,3.16,1.31,6.22,6.22,0,0,0,2.3.39,9.61,9.61,0,0,0,5.47-3.39C48,64,48.66,62.87,49,65ZM9.05,37.8C7.28,44,5.28,50.34,3.82,56.57c.7-2.39,1.7-4.77,2.46-7.23.93-3.23,1.54-6.46,2.31-9.62a.28.28,0,0,1,.08-.23Zm7.62,7.38.38.7A3.41,3.41,0,0,1,16.67,45.18Zm.46.85.31.38Zm5.38,7.31a25.25,25.25,0,0,0,1.85,2.15l-1.31-1.62Z"/><path class="cls-1" d="M117.18,37.84c.23,1.82-2.62,3.3-3.81,4.15a42.77,42.77,0,0,1-5.13,3.31,9.79,9.79,0,0,0-1.59.79c-.63.52-.51.46-.4,1.37a19,19,0,0,1,.28,3.13,12.16,12.16,0,0,1-.68,4.73c-1.37,3.53-4.1,5.81-8,5.7-3.47-.06-7.18-1.88-6.44-5.64,0,.11-.22,1.08-.28,1-.4-.23,0-1.48.11-1.76.69-2.11,2.51-3.76,4.22-5.07,1-.74,1.94-1.48,2.9-2.11.74-.45,2.45-1.14,2.57-1.94s-.57-2.5-.8-3.36a30.35,30.35,0,0,1-.74-3.36,10.73,10.73,0,0,0,0-1.88,11.06,11.06,0,0,1-.63-2.73A6.69,6.69,0,0,1,99,31.34c.45-1.36,3.47-4.5,5-3.07,0-.29.74.8.8,1.14s-.23,2.33-.57,2.28c0,0,.11-.52.17-.92a9,9,0,0,0-.8,2.4,7.76,7.76,0,0,0,.17,2.27c0-.11,0-.22.11-.28,0,0,.57,3,1.09,5.35-.4-1.53-.92-3.36-1.14-4.44.45,2.51,1,5,1.59,7.4.06,0,.12-.17.06-.45a1.72,1.72,0,0,1,.11.34,78.86,78.86,0,0,0,7.18-3.93A30.15,30.15,0,0,1,116,37.1c.57-.23,1-.12,1.19.68ZM96.68,57.31l1.6-.62c0,.05-.46.4-.46.45a6.78,6.78,0,0,0,1.77-1.53l-.29.22a15.2,15.2,0,0,0,1.6-3,13,13,0,0,0,.34-4.1,1.85,1.85,0,0,1-.4.23l.4-.34-.69.4c.35-.12-.74.74-.91.85l-1.71,1.14a13.92,13.92,0,0,0-3.24,2.79c-.51.74-2,3.08-.51,3.53A4.62,4.62,0,0,0,96.68,57.31Zm7.58-1.19A9.89,9.89,0,0,1,96.91,60a12.19,12.19,0,0,0,4.44-1A5.79,5.79,0,0,0,104.26,56.12Zm.91-14.87a14.74,14.74,0,0,1,.34,1.6A12.53,12.53,0,0,1,105.17,41.25Zm1,7.24a.4.4,0,0,0,.06.28A2.57,2.57,0,0,1,106.19,48.49Z"/><path class="cls-1" d="M71.39,41.23c-1,1.42-1.87,2.79-3,4.16-1.14,1.53-2.56,4-4.55,4.44-.46.05-2.62-.51-2.57-.86h.12c-.46-.22,0,.29-.69-.22a4.75,4.75,0,0,1-1.19-1.37,7.62,7.62,0,0,1-1.65-2.62c-.06-.29-.17-2.34.28-2.34.12,0,0,.29.06.29l.17-1c-.06.12-.06.17-.17.23s.85-4.1,1-4.44c.45-1.2.68-2.56,1.82-3.25a3.16,3.16,0,0,1,3,0c.45.17,1.76.74,1.76,1.31,0,.34-.28.4-.45.57a.39.39,0,0,1,.23-.05c.17.11-.69,1.31-.8,1.25s.06-.29.11-.46a29.5,29.5,0,0,0-2.67,5.75,24.77,24.77,0,0,1,1.87-3.87c.18.06-3.75,6.89-1.82,7.86.91.46,2.45-1,3.08-1.48a24.7,24.7,0,0,0,3.36-2.9.5.5,0,0,1-.4.11c-.23-.28,2.62-4,3.13-4.39s1.2-.51,1.31.23C73,39.24,72,40.49,71.39,41.23Zm-9.68,3.24-.11.46.11-.34v-.06C61.77,44.42,61.77,44.42,61.71,44.47Zm.74-14.06c-.05-.17-.22-1.94.4-1.65,0-.18.69-1,.34-.29a12.87,12.87,0,0,0,1.37-2.33l-.68,1a22.65,22.65,0,0,0,1.36-3.53c0-.06-.11-.57,0-.68-1.19-.46-.34-1.14.18-1.54-.12,0-.18,0-.23-.11-.23-.23.45-.4.62-.46a3.13,3.13,0,0,1,2.57.23A4.08,4.08,0,0,1,69.8,23,2.21,2.21,0,0,1,69,25.05c-.23.23-.63.4-.92.63-.34.4-.28.91-.56,1.31s-.52.4-.69.68-.23.35-.06.52a2,2,0,0,0-.56.39,6.13,6.13,0,0,1-1.6,1.94A5.49,5.49,0,0,0,66.16,29a3.87,3.87,0,0,1,1.65-1.25c-.57.62-.69,1.36-1.37,1.82s-.06-.4-.8.28c0,0,.34-.05.17.06a6.76,6.76,0,0,1-1.71,1.48c-.34.12-.56.34-1,.17s-.23-.45-.35-.62A5.72,5.72,0,0,1,62.45,30.41Zm.46-1.65a.05.05,0,0,1,.06,0c.05,0,.05,0,.05-.11S63,28.76,62.91,28.76Zm.91-1.49a1.36,1.36,0,0,1-.23.35Z"/><path class="cls-1" d="M62.32,39a14.74,14.74,0,0,1-1.76,3.53c-1.71,2.73-3.19,5.63-5.07,8.37a57.89,57.89,0,0,1-6.89,8.54c-2.22,2.11-5.3,3.76-8,1.31-2.39-2.22-2.39-6.21-2.22-9.22a57.77,57.77,0,0,1,1.83-9.34c.05-.12,0-1.49.28-1.88a6,6,0,0,0-.11.85,8,8,0,0,1,.4-1.2h-.18c-.17-1.14.63-2.9,1-4,.4-1.31.86-2.68,1.31-4,.86-2.45,1.77-4.84,2.57-7.29a46.23,46.23,0,0,1,3-7.06c.52-1.08,1.09-2.16,1.71-3.25.17-.28,1.43-2.73,1.71-2.67l-.45,1,1.82-3.13-.06.06c.29-.46.68-1.31,1-1.65l1.31-1.77c.8-1,1.76-2.33,3.07-2.73,2.51-.8,4.56,1.82,4.9,4l.06.06v.28c.34,3.48-1.71,7.58-3.25,10.54A22.63,22.63,0,0,1,57,23.94a22.5,22.5,0,0,0-2.28,3.53,103.11,103.11,0,0,1-7.06,10.14A5.82,5.82,0,0,0,46.32,40c-.34,1.08-.63,2.16-.91,3.3s-.63,2.28-.91,3.42a22.22,22.22,0,0,0-.57,2.22A12.7,12.7,0,0,0,43.59,51L44,49.29c.29.45-.17,2.16-.23,2.67a21.3,21.3,0,0,0-.17,2.68c0,1.08,0,3.53,1.43,3.76,1.93.23,4-2.68,5-3.87a81.72,81.72,0,0,0,6.21-9c1-1.6,2-3.19,3-4.84a21.13,21.13,0,0,1,1.94-3.31C62.44,36,62.55,38.12,62.32,39Zm-21,3.24c-.23,0-.52,1.2-.69,2.51v-.06a44.9,44.9,0,0,0-.74,6.15l.17-1.82v.17a9,9,0,0,1,.17-1.14c.34-1.71.4-3.87,1.09-5.47a.52.52,0,0,1,.05-.17C41.48,42.4,41.48,42.23,41.37,42.28Zm7.23-9.74c4.21-6.77,9-13.89,11.56-21.52a62.76,62.76,0,0,1-3.7,7.86c-.8,1.42-1.54,2.84-2.39,4.27a23.4,23.4,0,0,0-1.88,3.07c.45-1.48,1.82-3.19,2.62-4.55l2.39-4.45c1.36-2.73,3.41-6.09,3.53-9.28V7.88c.11-3-2.45.4-2.85,1A55.52,55.52,0,0,0,54,17C51.9,22.06,50.25,27.53,48.6,32.54ZM50.48,16.6c-.06,0-.06.17-.06.22,1.25-2.27,2.73-4.44,3.93-6.83-.57,1-1.59,1.94-2.16,3A39.32,39.32,0,0,0,50.48,16.6Z"/><path class="cls-2" d="M48.61,62.55A3.5,3.5,0,0,1,48,64.86c-2.16,3.38-5.23,7.46-9.54,8.23a6.81,6.81,0,0,1-4.61-.85C33.54,72,29.46,69,29.46,68.7a.56.56,0,0,1,.31.08.73.73,0,0,0-.38-.23c.23.23-.77-.39-.93-.46A7,7,0,0,1,27,66.55a27.76,27.76,0,0,0-2.61-2.69c-.39-.31-4-4.54-3.46-5.08.07-.07.31.39.46.23l-1-1.23v.16c-.15.23-4.69-7-5.15-7.69A16,16,0,0,1,13,46.17a.4.4,0,0,1,.23-.54,1.08,1.08,0,0,0-.62-.69l-1.38-2.69c-.69,2.23-.77,4.46-1.54,6.69-1,3.31-1.77,6.54-2.54,9.77l-.92,4c-.23,1-.15,2.62-.69,3.54-1.08,2-3.54-.92-4.31-2.07-2.31-3.08-.85-6.69,0-10a84,84,0,0,1,2.54-8.61,52.75,52.75,0,0,0,1.69-6.77c1.69-5.85,3.85-11.62,5.69-17.46C12.93,16.18,14.62,11,16.78,5.8a20.33,20.33,0,0,1,1.3-3.16l.54-1.31a.53.53,0,0,1-.15-.3c1-1.77,3.92-.93,5.23.07,2.69,1.85.38,3.54-.54,5.7A15.78,15.78,0,0,0,22.77,9c-.46,1.61-1.3,3.23-1.84,4.76-.85,2.16-1.62,4.31-2.39,6.54l-1.38,3.46a11.77,11.77,0,0,0-.92,3.62c-.46,2.38-1.85,4.61-2.46,7a101.74,101.74,0,0,0,10.53-9.22c3.31-3.62,6.92-6.7,10.08-10.54,2.92-3.69,6.76-8,8.07-12.54.23-.77,0-1.69,1.16-1.46,1.61.39,2.92,3.46,3.22,4.92v.16c.54,3.31-1.15,5.77-3.3,8.3-1.54,1.77-2.92,3.54-4.62,5.31A20.28,20.28,0,0,0,37.08,22a20.23,20.23,0,0,1-2.62,2.53c-1.77,1.54-3.38,3.31-5.15,4.85-1.23,1-2.08,2.23-3.23,3.31A51,51,0,0,1,14.7,40.4a69.3,69.3,0,0,0,5.46,8c-.62-.92-1.85-2.61-2.62-3.92,2.46,3.23,8,9.84,8.62,10.61,2,1.85,4,3.62,5.92,5.54a34.66,34.66,0,0,0,4.31,4L36,64.17a22.35,22.35,0,0,1,3.15,1.3,6.24,6.24,0,0,0,2.31.39,9.45,9.45,0,0,0,5.46-3.39C47.61,61.63,48.31,60.47,48.61,62.55ZM8.7,35.4C6.93,41.63,4.93,47.94,3.47,54.17c.69-2.39,1.69-4.77,2.46-7.23.92-3.23,1.54-6.46,2.31-9.61a.26.26,0,0,1,.08-.23Zm7.61,7.39.39.69A4.23,4.23,0,0,1,16.31,42.79Zm.47.84.3.39Zm5.38,7.31A25.39,25.39,0,0,0,24,53.09l-1.3-1.61Z"/><path class="cls-2" d="M61.51,36.45A15.16,15.16,0,0,1,59.74,40c-1.71,2.74-3.19,5.64-5.07,8.37a58,58,0,0,1-6.89,8.55c-2.22,2.1-5.3,3.76-8,1.31C37.42,56,37.42,52,37.59,49a56.89,56.89,0,0,1,1.82-9.34c.06-.11,0-1.48.28-1.88,0,.11,0,.51-.11.86a9.38,9.38,0,0,1,.4-1.2h-.17c-.17-1.14.62-2.91,1-4,.39-1.31.85-2.67,1.31-4,.85-2.45,1.76-4.84,2.56-7.29a45.41,45.41,0,0,1,3-7.07q.77-1.62,1.71-3.24c.17-.29,1.42-2.74,1.7-2.68l-.45,1L52.45,7l-.06,0c.29-.45.69-1.31,1-1.65l1.31-1.76c.8-1,1.77-2.34,3.08-2.74C60.25.12,62.3,2.74,62.65,5l.05,0V5.3C63,8.77,61,12.87,59.46,15.83a22.24,22.24,0,0,1-3.31,5.53,22.75,22.75,0,0,0-2.28,3.53A102.59,102.59,0,0,1,46.81,35a6,6,0,0,0-1.31,2.33c-.34,1.08-.62,2.17-.91,3.31s-.62,2.27-.91,3.41c-.11.52-.63,2.11-.57,2.22a14.25,14.25,0,0,0-.34,2.11l.45-1.71c.29.46-.17,2.17-.22,2.68a19.37,19.37,0,0,0-.17,2.68c0,1.08,0,3.53,1.42,3.75,1.94.23,4-2.67,5-3.87a80.7,80.7,0,0,0,6.2-9c1-1.59,2-3.19,3-4.84a21,21,0,0,1,1.94-3.3C61.62,33.43,61.73,35.54,61.51,36.45Zm-21,3.25c-.23,0-.51,1.19-.68,2.5v-.05a44.92,44.92,0,0,0-.75,6.15l.18-1.83v.18a7.29,7.29,0,0,1,.17-1.14c.34-1.71.4-3.88,1.08-5.47a.41.41,0,0,1,.06-.17C40.66,39.81,40.66,39.64,40.55,39.7ZM47.78,30c4.22-6.78,9-13.9,11.56-21.53a62.76,62.76,0,0,1-3.7,7.86c-.8,1.42-1.54,2.85-2.39,4.27a25.39,25.39,0,0,0-1.88,3.08c.45-1.48,1.82-3.19,2.62-4.56l2.39-4.44c1.37-2.74,3.42-6.1,3.53-9.28V5.3c.12-3-2.45.4-2.85,1a56.53,56.53,0,0,0-3.87,8.09C51.08,19.48,49.43,25,47.78,30ZM49.66,14a.33.33,0,0,0-.06.23C50.86,12,52.34,9.8,53.53,7.41c-.57,1-1.59,1.93-2.16,3S50.17,12.76,49.66,14Z"/><path class="cls-2" d="M71.24,38.39c-1,1.42-1.87,2.79-3,4.16-1.14,1.53-2.56,4-4.55,4.44-.46,0-2.62-.52-2.57-.86h.12c-.46-.23,0,.29-.69-.23a4.58,4.58,0,0,1-1.19-1.36,7.62,7.62,0,0,1-1.65-2.62c-.06-.29-.17-2.34.28-2.34.12,0,0,.29.06.29l.17-1c-.06.12-.06.17-.17.23s.85-4.1,1-4.44c.45-1.2.68-2.56,1.82-3.25a3.16,3.16,0,0,1,3,0c.45.17,1.76.74,1.76,1.31,0,.34-.28.4-.45.57.05-.06.17-.06.23-.06s-.69,1.31-.8,1.26.06-.29.11-.46a29.5,29.5,0,0,0-2.67,5.75A24.33,24.33,0,0,1,64,35.88c.18.06-3.75,6.89-1.82,7.86.91.46,2.45-1,3.08-1.48a24.7,24.7,0,0,0,3.36-2.9.5.5,0,0,1-.4.11c-.23-.29,2.62-4,3.13-4.39s1.2-.51,1.31.23C72.84,36.39,71.81,37.65,71.24,38.39Zm-9.68,3.24-.11.46.11-.34v-.06C61.62,41.58,61.62,41.58,61.56,41.63Zm.74-14.06c0-.17-.22-1.94.4-1.65,0-.18.69-1,.34-.29a12.87,12.87,0,0,0,1.37-2.33l-.68,1a22.65,22.65,0,0,0,1.36-3.53c0-.06-.11-.57,0-.68-1.19-.46-.34-1.14.17-1.54-.11,0-.17,0-.22-.12-.23-.22.45-.39.62-.45a3.13,3.13,0,0,1,2.57.23,4.08,4.08,0,0,1,1.42,1.93,2.21,2.21,0,0,1-.85,2.05c-.23.23-.63.4-.92.63-.34.4-.28.91-.56,1.31s-.52.4-.69.68-.23.34-.06.52a2,2,0,0,0-.56.39,6.13,6.13,0,0,1-1.6,1.94A5.49,5.49,0,0,0,66,26.2,3.87,3.87,0,0,1,67.66,25c-.57.62-.69,1.36-1.37,1.82s-.06-.4-.8.28c0,0,.34-.05.17.06A6.76,6.76,0,0,1,64,28.59c-.34.12-.56.34-1,.17s-.23-.45-.35-.62A5.72,5.72,0,0,1,62.3,27.57Zm.46-1.65a.05.05,0,0,1,.06,0s0,0,0-.11S62.82,25.92,62.76,25.92Zm.91-1.49a1.36,1.36,0,0,1-.23.35Z"/><path class="cls-1" d="M98.73,38.44c.12,1.48-1,2.28-1.88,3.24a30.27,30.27,0,0,1-2.56,3.08,28.43,28.43,0,0,1-3.47,3.47c-.12.12-2.68,1.54-2.85,1.77v-.12c-.46.35.28,0-.4.57a7.81,7.81,0,0,1-1.82,1,8,8,0,0,1-2.22.91c-.4,0-2.85-.85-2.51-1.36.06-.12.23.11.28.05a2.78,2.78,0,0,1-.74-.68c0,.06.06.17.06.23a13.81,13.81,0,0,1-1.88-2.45,12.85,12.85,0,0,1-1.25-3.59l-2.73,4.56c-.69,1-1,2.85-2.28,3.13-.12,0-1.65.4-2-.17.11.17.62.23,1,.23a3,3,0,0,1-1.31-.46.21.21,0,0,0,.06.12,11.11,11.11,0,0,1-1.08-.86,3.48,3.48,0,0,1-.52-2,21.25,21.25,0,0,1,.63-3.76c.63-2.85,1.48-5.7,1.94-8.6a59.68,59.68,0,0,1,2-7.86c.45-1.42.91-2.79,1.42-4.16.12-.34,1-3.07,1.31-3.07a6.34,6.34,0,0,0-.28,1.14c.39-1.14.74-2.23,1.19-3.36a.21.21,0,0,0,.06-.12c.17-.4.34-1.14.51-1.59l1.14-2.39a31.46,31.46,0,0,1,2-3.93c1.14-2,2.68-4.22,4.84-5.19,2.63-1.19,5,.91,6.21,3.25a4.44,4.44,0,0,1,.34,3.7,21.31,21.31,0,0,1-3.75,6.78c-1.31,1.42-2.17,3.64-3.31,5.35-1.54,2.34-3.07,4.67-4.78,6.84-.74,1-1.54,1.93-2.34,2.9a7.67,7.67,0,0,0-1.65,3.25c-.8,2.67-1.54,5.35-2.16,8l1.54-2.68a12.57,12.57,0,0,1,1-1.42,18.76,18.76,0,0,1,1.14-1.83c-.06.06-1.14,1.37-1.14,1.37-.11-.68,1.14-2.11,1.54-2.68.62-1,1.36-2,2-3a38.36,38.36,0,0,1,5.12-5.76c2-1.76,5.7-4.72,8.32-2.5s.91,5.07-1.08,7.06a28.74,28.74,0,0,1-6.27,4.39,32.52,32.52,0,0,1-3.64,1.82c-.23.11-1.08.34-1.2.45s.23,1.2.06,1.26-.17-.18-.23-.35a11.76,11.76,0,0,0,2.34,5.7,20.38,20.38,0,0,1-1.71-3.7c.17.74,2.1,4.21,2.9,4.33a2.16,2.16,0,0,0,.57,0c1.82-.12,3.3-2,4.61-3A38.8,38.8,0,0,0,94,42.65a.5.5,0,0,1-.39.12c-.17-.29,3.53-4.39,3.81-4.67.51-.46,1.25-.74,1.31.28ZM76.86,19.36l.06-.06A.06.06,0,0,1,76.86,19.36Zm0,0v0Zm1.08,10.93c0,.06,0,.06,0,.12l0-.06-.11.46c.74-2.85,1.65-5.59,2.56-8.43.8-2.39,1.48-4.79,2.4-7.12.11-.34,1-1.6,1.25-2.34-.29.52-.86,1.26-.91,1.48-.8,1.71-1.43,3.42-2.11,5.07A60.58,60.58,0,0,0,77.94,30.29Zm3.59-9.62c-1.36,3.64-2.45,7.35-3.47,11A102.86,102.86,0,0,0,86.6,18.79c.63-1.14,1.25-2.28,1.82-3.47-.51.91-1,1.76-1.42,2.5-.85,1.6-1.77,3.13-2.73,4.67l-1.26,2a12,12,0,0,0-1,1.26,16.47,16.47,0,0,1,1.66-2.51l1.53-2.5a52.77,52.77,0,0,0,3-5.64c.63-1.31,2.39-4.56,1.37-5.93s-2.68.63-3.25,1.43C84.15,13.55,82.84,17.25,81.53,20.67Zm6.72,13.5c.46-.52,3.7-4.22,2.79-4.9s-3.81,2.56-4.33,3.13a70.4,70.4,0,0,0-6,7.52A22,22,0,0,0,88.25,34.17Z"/><path class="cls-2" d="M98.58,35.6c.12,1.48-1,2.27-1.88,3.24a30.27,30.27,0,0,1-2.56,3.08,28.51,28.51,0,0,1-3.48,3.47c-.11.12-2.67,1.54-2.84,1.77V47c-.46.35.28,0-.4.57a7.81,7.81,0,0,1-1.82,1,8,8,0,0,1-2.22.91c-.4,0-2.85-.85-2.51-1.36.06-.12.23.11.28,0a3,3,0,0,1-.74-.68c0,.06.06.17.06.23a13.81,13.81,0,0,1-1.88-2.45,12.85,12.85,0,0,1-1.25-3.59l-2.73,4.56c-.69,1-1,2.84-2.28,3.13-.12,0-1.65.4-2-.17.11.17.62.23,1,.23A3,3,0,0,1,70,49a.17.17,0,0,0,.06.11A9.51,9.51,0,0,1,69,48.24a3.48,3.48,0,0,1-.52-2,21.25,21.25,0,0,1,.63-3.76c.63-2.85,1.48-5.7,1.94-8.6a59.68,59.68,0,0,1,2-7.86c.45-1.42.91-2.79,1.42-4.16.12-.34,1-3.07,1.31-3.07a6.34,6.34,0,0,0-.28,1.14c.39-1.14.74-2.23,1.19-3.36a.21.21,0,0,0,.06-.12c.17-.4.34-1.14.51-1.59l1.14-2.4a32.9,32.9,0,0,1,2-3.93c1.14-2,2.68-4.21,4.84-5.18,2.62-1.19,5,.91,6.21,3.25a4.44,4.44,0,0,1,.34,3.7,21.31,21.31,0,0,1-3.75,6.78c-1.31,1.42-2.17,3.64-3.31,5.35-1.54,2.34-3.07,4.67-4.78,6.84-.74,1-1.54,1.93-2.34,2.9A7.67,7.67,0,0,0,76,35.43c-.8,2.67-1.54,5.35-2.16,8l1.54-2.68a12.57,12.57,0,0,1,1-1.42,18.76,18.76,0,0,1,1.14-1.83c-.06.06-1.14,1.37-1.14,1.37-.11-.68,1.14-2.11,1.54-2.68.62-1,1.36-2,2-3a38.29,38.29,0,0,1,5.12-5.75c2-1.76,5.7-4.72,8.32-2.5S94.31,30,92.32,32a28.36,28.36,0,0,1-6.27,4.38,31,31,0,0,1-3.64,1.83c-.23.11-1.08.34-1.2.45s.23,1.2.06,1.25-.17-.17-.23-.34a11.76,11.76,0,0,0,2.34,5.7,20.38,20.38,0,0,1-1.71-3.7c.17.74,2.1,4.21,2.9,4.32a1.81,1.81,0,0,0,.57,0c1.82-.11,3.3-2,4.61-3a38.8,38.8,0,0,0,4.1-3.08.54.54,0,0,1-.39.11c-.17-.28,3.53-4.38,3.81-4.66.51-.46,1.25-.75,1.31.28ZM76.71,16.52l.06-.06A.06.06,0,0,1,76.71,16.52Zm0,0v0Zm1.08,10.93c0,.06-.05.06-.05.12l.05-.06-.11.46c.74-2.85,1.65-5.59,2.56-8.43.8-2.4,1.48-4.79,2.4-7.12.11-.34,1-1.6,1.25-2.34-.29.52-.86,1.26-.91,1.48-.8,1.71-1.43,3.42-2.11,5.07A60.35,60.35,0,0,0,77.79,27.45Zm3.59-9.62c-1.36,3.64-2.45,7.34-3.47,11.05A103.6,103.6,0,0,0,86.45,16c.63-1.14,1.25-2.28,1.82-3.48-.51.92-1,1.77-1.42,2.51-.85,1.6-1.77,3.13-2.73,4.67l-1.26,2a12,12,0,0,0-1,1.26,16,16,0,0,1,1.66-2.51l1.53-2.51a51.69,51.69,0,0,0,3-5.63c.63-1.31,2.39-4.56,1.37-5.93S86.79,7,86.22,7.75C84,10.71,82.69,14.41,81.38,17.83Zm6.72,13.5c.46-.52,3.7-4.22,2.79-4.9S87.08,29,86.56,29.56a69.42,69.42,0,0,0-6,7.52A22,22,0,0,0,88.1,31.33Z"/><path class="cls-2" d="M117,36c.23,1.82-2.62,3.3-3.81,4.15a43.58,43.58,0,0,1-5.13,3.31,9.79,9.79,0,0,0-1.59.79c-.63.52-.51.46-.4,1.37a19,19,0,0,1,.28,3.13,12.16,12.16,0,0,1-.68,4.73c-1.37,3.53-4.1,5.81-8,5.69-3.47-.05-7.18-1.87-6.44-5.63,0,.11-.22,1.08-.28,1-.4-.23,0-1.48.11-1.76.69-2.11,2.51-3.76,4.22-5.07,1-.74,1.93-1.48,2.9-2.11.74-.46,2.45-1.14,2.57-1.94s-.57-2.5-.8-3.36A30.35,30.35,0,0,1,99.21,37a10.73,10.73,0,0,0,0-1.88,11.06,11.06,0,0,1-.63-2.73,6.69,6.69,0,0,1,.29-2.85c.45-1.36,3.47-4.5,5-3.07,0-.29.74.79.8,1.14s-.23,2.33-.57,2.27c0,0,.11-.51.17-.91a9,9,0,0,0-.8,2.4,7.76,7.76,0,0,0,.17,2.27c0-.11,0-.22.11-.28-.05,0,.57,3,1.09,5.35-.4-1.54-.92-3.36-1.14-4.44.45,2.51,1,5,1.59,7.4.06-.05.12-.17.06-.45a1.72,1.72,0,0,1,.11.34,78.86,78.86,0,0,0,7.18-3.93,30.15,30.15,0,0,1,3.19-2.33c.57-.23,1-.12,1.19.68ZM96.53,55.47l1.6-.62c.05,0-.46.4-.46.45a6.64,6.64,0,0,0,1.77-1.54l-.29.23a15.2,15.2,0,0,0,1.6-3,13,13,0,0,0,.34-4.1,1.85,1.85,0,0,1-.4.23l.4-.34-.69.39c.35-.11-.74.75-.91.86l-1.71,1.14A13.92,13.92,0,0,0,94.54,52c-.51.74-2,3.07-.51,3.53A4.72,4.72,0,0,0,96.53,55.47Zm7.58-1.19a9.89,9.89,0,0,1-7.35,3.87,12.19,12.19,0,0,0,4.44-1A5.79,5.79,0,0,0,104.11,54.28ZM105,39.41a14.74,14.74,0,0,1,.34,1.6A12.53,12.53,0,0,1,105,39.41Zm1,7.24a.4.4,0,0,0,.06.28A2.57,2.57,0,0,1,106,46.65Z"/><text class="cls-3" transform="translate(49.6 72.52)">PHOTOGRAPHY</text></g></g></svg>